<?xml version="1.0" encoding="UTF-8" standalone="no"?>
<!-- Created with Inkscape (http://www.inkscape.org/) -->

<svg
   xmlns:dc="http://purl.org/dc/elements/1.1/"
   xmlns:cc="http://creativecommons.org/ns#"
   xmlns:rdf="http://www.w3.org/1999/02/22-rdf-syntax-ns#"
   xmlns:svg="http://www.w3.org/2000/svg"
   xmlns="http://www.w3.org/2000/svg"
   xmlns:xlink="http://www.w3.org/1999/xlink"
   xmlns:sodipodi="http://sodipodi.sourceforge.net/DTD/sodipodi-0.dtd"
   xmlns:inkscape="http://www.inkscape.org/namespaces/inkscape"
   width="208.63431"
   height="79.484932"
   id="svg2"
   version="1.1"
   inkscape:version="0.48.5 r10040"
   sodipodi:docname="attiny85text2path.svg"
   inkscape:export-filename="/Users/rianders/Documents/2d/attiny85.png"
   inkscape:export-xdpi="90"
   inkscape:export-ydpi="90">
  <defs
     id="defs4" />
  <sodipodi:namedview
     id="base"
     pagecolor="#ffffff"
     bordercolor="#666666"
     borderopacity="1.0"
     inkscape:pageopacity="0.0"
     inkscape:pageshadow="2"
     inkscape:zoom="3.7873076"
     inkscape:cx="91.374552"
     inkscape:cy="18.619282"
     inkscape:document-units="px"
     inkscape:current-layer="layer1"
     showgrid="true"
     inkscape:snap-global="false"
     inkscape:window-width="1437"
     inkscape:window-height="778"
     inkscape:window-x="3"
     inkscape:window-y="0"
     inkscape:window-maximized="0"
     showguides="true"
     inkscape:guide-bbox="true"
     fit-margin-top="0"
     fit-margin-left="0"
     fit-margin-right="0"
     fit-margin-bottom="0">
    <inkscape:grid
       type="xygrid"
       id="grid3076"
       empspacing="5"
       visible="true"
       enabled="true"
       snapvisiblegridlinesonly="true"
       originx="-283.23736px"
       originy="-790.27596px" />
    <sodipodi:guide
       orientation="1,0"
       position="17.24775,132.17396"
       id="guide3146" />
    <sodipodi:guide
       orientation="1,0"
       position="90.0601,41.883765"
       id="guide3148" />
    <sodipodi:guide
       orientation="1,0"
       position="1.69905,93.474315"
       id="guide5680" />
  </sodipodi:namedview>
  <metadata
     id="metadata7">
    <rdf:RDF>
      <cc:Work
         rdf:about="">
        <dc:format>image/svg+xml</dc:format>
        <dc:type
           rdf:resource="http://purl.org/dc/dcmitype/StillImage" />
        <dc:title />
      </cc:Work>
    </rdf:RDF>
  </metadata>
  <g
     inkscape:label="Layer 1"
     inkscape:groupmode="layer"
     id="layer1"
     style="display:inline"
     transform="translate(-283.23736,-182.60128)">
    <g
       id="g5812">
      <g
         id="g4180">
        <path
           style="fill:#000000;fill-rule:evenodd;stroke:#000000;stroke-width:0.9849354px;stroke-linecap:butt;stroke-linejoin:miter;stroke-opacity:1"
           d="m 345.53126,183.09375 0,78.5 53.8125,0 0,-78.5 -18.90625,0 c -1.43329,2.87447 -4.45398,4.875 -8,4.875 -3.55115,0 -6.63185,-1.9938 -8.0625,-4.875 l -18.84375,0 z"
           id="rect3068"
           inkscape:connector-curvature="0" />
        <use
           x="0"
           y="0"
           inkscape:tiled-clone-of="#rect3072"
           xlink:href="#rect3072"
           id="use3358"
           width="744.09448"
           height="1052.3622"
           transform="translate(-5.5227481e-8,-0.27962357)" />
        <use
           x="0"
           y="0"
           inkscape:tiled-clone-of="#rect3072"
           xlink:href="#rect3072"
           transform="translate(0.06593595,17.17213)"
           id="use3360"
           width="744.09448"
           height="1052.3622" />
        <use
           x="0"
           y="0"
           inkscape:tiled-clone-of="#rect3072"
           xlink:href="#rect3072"
           transform="translate(0.05532151,34.5274)"
           id="use3362"
           width="744.09448"
           height="1052.3622" />
        <use
           x="0"
           y="0"
           inkscape:tiled-clone-of="#rect3072"
           xlink:href="#rect3072"
           transform="translate(0.11104734,52.075639)"
           id="use3364"
           width="744.09448"
           height="1052.3622" />
        <use
           x="0"
           y="0"
           inkscape:tiled-clone-of="#rect3072"
           xlink:href="#rect3072"
           transform="matrix(-1,0,0,1,744.91136,-0.19772372)"
           id="use3366"
           width="744.09448"
           height="1052.3622" />
        <use
           x="0"
           y="0"
           inkscape:tiled-clone-of="#rect3072"
           xlink:href="#rect3072"
           transform="matrix(-1,0,0,1,744.91136,17.25403)"
           id="use3368"
           width="744.09448"
           height="1052.3622" />
        <use
           x="0"
           y="0"
           inkscape:tiled-clone-of="#rect3072"
           xlink:href="#rect3072"
           transform="matrix(-1,0,0,1,744.91136,34.705785)"
           id="use3370"
           width="744.09448"
           height="1052.3622" />
        <use
           x="0"
           y="0"
           inkscape:tiled-clone-of="#rect3072"
           xlink:href="#rect3072"
           transform="matrix(-1,0,0,1,744.91136,52.157539)"
           id="use3372"
           width="744.09448"
           height="1052.3622" />
        <g
           transform="scale(0.83122796,1.2030394)"
           style="font-size:9.03477573px;font-style:normal;font-variant:normal;font-weight:normal;font-stretch:normal;text-align:start;line-height:125%;letter-spacing:0px;word-spacing:0px;writing-mode:lr-tb;text-anchor:start;fill:#ffffff;fill-opacity:1;stroke:none;font-family:Helvetica;-inkscape-font-specification:Helvetica"
           id="text3376">
          <path
             d="m 420.85718,162.5046 0,-0.60879 c 0.57349,-0.0559 0.97347,-0.14851 1.19993,-0.27792 0.22646,-0.13234 0.39556,-0.44262 0.50732,-0.93083 l 0.62644,0 0,6.29081 -0.84701,0 0,-4.47327 -1.48668,0"
             style=""
             id="path4364" />
        </g>
        <g
           transform="scale(0.83122796,1.2030394)"
           style="font-size:9.03477573px;font-style:normal;font-variant:normal;font-weight:normal;font-stretch:normal;text-align:start;line-height:125%;letter-spacing:0px;word-spacing:0px;writing-mode:lr-tb;text-anchor:start;fill:#ffffff;fill-opacity:1;stroke:none;font-family:Helvetica;-inkscape-font-specification:Helvetica"
           id="text4148">
          <path
             d="m 419.84032,181.45999 c 0.0294,-0.54408 0.14117,-1.01759 0.33528,-1.42051 0.19704,-0.40291 0.57937,-0.76907 1.14699,-1.09846 l 0.84701,-0.48968 c 0.37939,-0.22057 0.64555,-0.4088 0.79848,-0.56467 0.24116,-0.2441 0.36174,-0.5235 0.36175,-0.83819 -1e-5,-0.36762 -0.1103,-0.65878 -0.33087,-0.87348 -0.22058,-0.21763 -0.51468,-0.32645 -0.8823,-0.32645 -0.54409,0 -0.92054,0.20587 -1.12935,0.61761 -0.11176,0.22058 -0.17352,0.52645 -0.18528,0.91759 l -0.80731,0 c 0.009,-0.54996 0.11029,-0.99846 0.3044,-1.34551 0.34409,-0.61172 0.95141,-0.91758 1.82195,-0.91759 0.72349,10e-6 1.2514,0.19558 1.58373,0.58673 0.33527,0.39116 0.50291,0.82643 0.50292,1.30581 -10e-6,0.50586 -0.17794,0.93818 -0.5338,1.29698 -0.20587,0.20882 -0.57497,0.46174 -1.10729,0.75878 l -0.60437,0.33528 c -0.28822,0.15881 -0.51468,0.31028 -0.67938,0.45438 -0.2941,0.25587 -0.47938,0.53968 -0.55585,0.85142 l 3.44981,0 0,0.74996 -4.33652,0"
             style=""
             id="path4367" />
        </g>
        <g
           transform="scale(0.83122796,1.2030394)"
           style="font-size:9.03477573px;font-style:normal;font-variant:normal;font-weight:normal;font-stretch:normal;text-align:start;line-height:125%;letter-spacing:0px;word-spacing:0px;writing-mode:lr-tb;text-anchor:start;fill:#ffffff;fill-opacity:1;stroke:none;font-family:Helvetica;-inkscape-font-specification:Helvetica"
           id="text4152">
          <path
             d="m 421.94681,195.99726 c -0.74702,0 -1.28963,-0.2044 -1.62785,-0.6132 -0.33527,-0.41174 -0.50291,-0.91171 -0.50291,-1.49991 l 0.82936,0 c 0.0353,0.4088 0.11176,0.70584 0.2294,0.89112 0.20587,0.33234 0.57791,0.4985 1.11611,0.4985 0.41762,0 0.7529,-0.11176 1.00583,-0.33527 0.25292,-0.22352 0.37938,-0.51174 0.37939,-0.86466 -1e-5,-0.43527 -0.13382,-0.73966 -0.40145,-0.91318 -0.26469,-0.17352 -0.63379,-0.26028 -1.10729,-0.26028 -0.0529,0 -0.10735,0.001 -0.16322,0.004 -0.053,0 -0.10735,0.001 -0.16323,0.004 l 0,-0.70143 c 0.0823,0.009 0.15146,0.0147 0.20734,0.0177 0.0559,0.003 0.11617,0.004 0.18087,0.004 0.29704,0 0.54114,-0.047 0.73231,-0.14117 0.33527,-0.16469 0.50291,-0.45879 0.50292,-0.8823 -1e-5,-0.31468 -0.11177,-0.55732 -0.33528,-0.7279 -0.22352,-0.17057 -0.4838,-0.25586 -0.78084,-0.25587 -0.52938,1e-5 -0.89554,0.17647 -1.09846,0.52938 -0.11176,0.19411 -0.17499,0.47057 -0.1897,0.82937 l -0.78525,0 c 0,-0.47056 0.0941,-0.87054 0.28234,-1.19993 0.32351,-0.5882 0.89259,-0.8823 1.70725,-0.88231 0.64408,1e-5 1.14258,0.14412 1.49551,0.43233 0.35291,0.28528 0.52937,0.69997 0.52938,1.24405 -1e-5,0.38821 -0.10441,0.7029 -0.31322,0.94406 -0.12941,0.15 -0.29704,0.26764 -0.50291,0.35292 0.33233,0.0912 0.59114,0.26764 0.77642,0.52938 0.18822,0.25881 0.28234,0.57644 0.28234,0.95289 0,0.60291 -0.19852,1.09406 -0.59555,1.47344 -0.39704,0.37939 -0.96024,0.56909 -1.68961,0.56909"
             style=""
             id="path4370" />
        </g>
        <g
           transform="scale(0.83122796,1.2030394)"
           style="font-size:9.03477573px;font-style:normal;font-variant:normal;font-weight:normal;font-stretch:normal;text-align:start;line-height:125%;letter-spacing:0px;word-spacing:0px;writing-mode:lr-tb;text-anchor:start;fill:#ffffff;fill-opacity:1;stroke:none;font-family:Helvetica;-inkscape-font-specification:Helvetica"
           id="text4156">
          <path
             d="m 422.53356,208.13687 0,-2.86307 -2.02488,2.86307 2.02488,0 m 0.0132,2.23663 0,-1.54402 -2.77042,0 0,-0.77643 2.89395,-4.01448 0.67055,0 0,4.0983 0.93083,0 0,0.69261 -0.93083,0 0,1.54402 -0.79408,0"
             style=""
             id="path4373" />
        </g>
        <g
           transform="scale(0.83122796,1.2030394)"
           style="font-size:9.03477573px;font-style:normal;font-variant:normal;font-weight:normal;font-stretch:normal;text-align:start;line-height:125%;letter-spacing:0px;word-spacing:0px;writing-mode:lr-tb;text-anchor:start;fill:#ffffff;fill-opacity:1;stroke:none;font-family:Helvetica;-inkscape-font-specification:Helvetica"
           id="text4160">
          <path
             d="m 471.07897,208.62213 c 0.0529,0.45291 0.26322,0.76613 0.63085,0.93965 0.18822,0.0882 0.40586,0.13235 0.6529,0.13235 0.47056,0 0.81907,-0.14999 1.04553,-0.44998 0.22645,-0.29998 0.33968,-0.63231 0.33969,-0.997 -1e-5,-0.44115 -0.13529,-0.78231 -0.40586,-1.02347 -0.26764,-0.24116 -0.58968,-0.36174 -0.96612,-0.36174 -0.27352,0 -0.5088,0.0529 -0.70584,0.15881 -0.19411,0.10588 -0.36028,0.25293 -0.49851,0.44115 l -0.68819,-0.0397 0.48085,-3.40128 3.28217,0 0,0.76761 -2.68661,0 -0.2691,1.75578 c 0.14704,-0.11176 0.28674,-0.19558 0.41909,-0.25146 0.23528,-0.097 0.50732,-0.14558 0.81613,-0.14558 0.57937,0 1.07052,0.18676 1.47344,0.56026 0.40292,0.37351 0.60438,0.84702 0.60438,1.42051 0,0.59703 -0.18529,1.12347 -0.55585,1.57932 -0.36763,0.45586 -0.95583,0.68378 -1.7646,0.68378 -0.51468,0 -0.97054,-0.1441 -1.36757,-0.43232 -0.3941,-0.29116 -0.61467,-0.73672 -0.66173,-1.33669 l 0.82495,0"
             style=""
             id="path4376" />
        </g>
        <g
           transform="scale(0.83122796,1.2030394)"
           style="font-size:9.03477573px;font-style:normal;font-variant:normal;font-weight:normal;font-stretch:normal;text-align:start;line-height:125%;letter-spacing:0px;word-spacing:0px;writing-mode:lr-tb;text-anchor:start;fill:#ffffff;fill-opacity:1;stroke:none;font-family:Helvetica;-inkscape-font-specification:Helvetica"
           id="text4164">
          <path
             d="m 472.56565,189.49469 c 0.70584,0 1.19699,0.18382 1.47345,0.55144 0.27939,0.36469 0.41909,0.74113 0.41909,1.12934 l -0.78525,0 c -0.0471,-0.24998 -0.12205,-0.44556 -0.22499,-0.58673 -0.19116,-0.26468 -0.48085,-0.39703 -0.86906,-0.39703 -0.4441,0 -0.79702,0.20587 -1.05877,0.61761 -0.26175,0.4088 -0.40733,0.99553 -0.43674,1.76019 0.18235,-0.26763 0.41174,-0.46762 0.6882,-0.59997 0.25292,-0.11763 0.53526,-0.17645 0.84701,-0.17646 0.52938,1e-5 0.99112,0.16912 1.38521,0.50733 0.3941,0.33822 0.59114,0.8426 0.59115,1.51315 -10e-6,0.57349 -0.18676,1.08229 -0.56026,1.52638 -0.37352,0.44115 -0.90584,0.66173 -1.59697,0.66173 -0.59115,0 -1.10141,-0.22352 -1.5308,-0.67055 -0.42938,-0.44998 -0.64408,-1.20582 -0.64408,-2.26752 0,-0.78525 0.0956,-1.45138 0.28675,-1.99842 0.36763,-1.04699 1.03965,-1.57049 2.01606,-1.57049 m -0.0573,5.80113 c 0.41762,0 0.72937,-0.13969 0.93524,-0.41909 0.20881,-0.28234 0.31322,-0.61467 0.31322,-0.997 0,-0.32351 -0.0926,-0.63084 -0.27792,-0.92201 -0.18529,-0.29409 -0.52204,-0.44114 -1.01024,-0.44115 -0.34116,1e-5 -0.64114,0.11323 -0.89995,0.33969 -0.25587,0.22646 -0.3838,0.56762 -0.3838,1.02347 0,0.39998 0.11617,0.73672 0.34851,1.01023 0.23528,0.27058 0.56026,0.40586 0.97494,0.40586"
             style=""
             id="path4379" />
        </g>
        <g
           transform="scale(0.83122796,1.2030394)"
           style="font-size:9.03477573px;font-style:normal;font-variant:normal;font-weight:normal;font-stretch:normal;text-align:start;line-height:125%;letter-spacing:0px;word-spacing:0px;writing-mode:lr-tb;text-anchor:start;fill:#ffffff;fill-opacity:1;stroke:none;font-family:Helvetica;-inkscape-font-specification:Helvetica"
           id="text4168">
          <path
             d="m 474.62582,175.18462 0,0.69261 c -0.20293,0.19705 -0.47351,0.53968 -0.81172,1.02788 -0.33528,0.48821 -0.63232,1.01465 -0.89112,1.57932 -0.25587,0.54997 -0.44998,1.05141 -0.58232,1.50432 -0.0853,0.29117 -0.19558,0.76026 -0.33086,1.40728 l -0.8779,0 c 0.19999,-1.20582 0.64114,-2.40575 1.32346,-3.5998 0.40291,-0.69995 0.82642,-1.30433 1.27051,-1.81313 l -3.49391,0 0,-0.79848 4.39386,0"
             style=""
             id="path4382" />
        </g>
        <g
           transform="scale(0.83122796,1.2030394)"
           style="font-size:9.03477573px;font-style:normal;font-variant:normal;font-weight:normal;font-stretch:normal;text-align:start;line-height:125%;letter-spacing:0px;word-spacing:0px;writing-mode:lr-tb;text-anchor:start;fill:#ffffff;fill-opacity:1;stroke:none;font-family:Helvetica;-inkscape-font-specification:Helvetica"
           id="text4172">
          <path
             d="m 472.4245,163.23912 c 0.34997,10e-6 0.62349,-0.0971 0.82054,-0.29116 0.19704,-0.19704 0.29557,-0.43085 0.29557,-0.70143 0,-0.23527 -0.0941,-0.45144 -0.28234,-0.64849 -0.18822,-0.19704 -0.47497,-0.29557 -0.86024,-0.29557 -0.38234,0 -0.65879,0.0985 -0.82937,0.29557 -0.17058,0.19705 -0.25587,0.42792 -0.25586,0.69261 -10e-6,0.29704 0.11028,0.52938 0.33086,0.69702 0.22057,0.16764 0.48085,0.25146 0.78084,0.25145 m 0.0485,3.12776 c 0.36763,0 0.67202,-0.0985 0.91319,-0.29557 0.2441,-0.19998 0.36615,-0.49703 0.36615,-0.89112 0,-0.4088 -0.12499,-0.71908 -0.37498,-0.93083 -0.24999,-0.21175 -0.57055,-0.31763 -0.96171,-0.31763 -0.37939,0 -0.68966,0.10882 -0.93082,0.32645 -0.23823,0.2147 -0.35734,0.51321 -0.35734,0.89554 0,0.32939 0.10882,0.61467 0.32645,0.85583 0.22058,0.23822 0.56026,0.35733 1.01906,0.35733 m -1.12934,-2.82336 c -0.22058,-0.0941 -0.39263,-0.2044 -0.51615,-0.33087 -0.23234,-0.23527 -0.34851,-0.54114 -0.34851,-0.91759 0,-0.47056 0.17058,-0.87495 0.51174,-1.21317 0.34115,-0.33821 0.82495,-0.50731 1.45138,-0.50732 0.60585,1e-5 1.08082,0.16029 1.42492,0.48085 0.3441,0.31764 0.51614,0.68968 0.51615,1.11612 -1e-5,0.3941 -0.1,0.7132 -0.29998,0.95729 -0.11177,0.13824 -0.28529,0.27352 -0.52056,0.40586 0.26174,0.12059 0.46761,0.25882 0.61761,0.41469 0.27939,0.2941 0.41909,0.67643 0.41909,1.14699 0,0.55585 -0.18676,1.02788 -0.56026,1.41609 -0.37351,0.38528 -0.90142,0.57791 -1.58373,0.57791 -0.61467,0 -1.13523,-0.16616 -1.56168,-0.4985 -0.4235,-0.33527 -0.63526,-0.82054 -0.63526,-1.4558 0,-0.3735 0.0912,-0.69554 0.27352,-0.96612 0.18234,-0.27351 0.45291,-0.48232 0.81172,-0.62643"
             style=""
             id="path4385" />
        </g>
        <g
           transform="matrix(0.02284003,-0.99973913,0.99973913,0.02284003,0,0)"
           inkscape:transform-center-x="-1.3819784e-05"
           inkscape:transform-center-y="11.452872"
           style="font-size:12.85111046px;font-style:normal;font-variant:normal;font-weight:normal;font-stretch:normal;text-align:start;line-height:125%;letter-spacing:0px;word-spacing:0px;writing-mode:lr-tb;text-anchor:start;fill:#ffffff;fill-opacity:1;stroke:none;font-family:Helvetica;-inkscape-font-specification:Helvetica"
           id="text4176">
          <path
             d="m -236.27661,377.40467 -1.39931,-4.07245 -1.48717,4.07245 2.88648,0 m -2.05191,-5.44039 1.41187,0 3.34455,9.21791 -1.36794,0 -0.93497,-2.76098 -3.64575,0 -0.99772,2.76098 -1.28009,0 3.47005,-9.21791 m 0.64632,0 0,0"
             style=""
             id="path4388" />
          <path
             d="m -225.66565,371.96428 0,1.09812 -3.10611,0 0,8.11979 -1.26754,0 0,-8.11979 -3.1061,0 0,-1.09812 7.47975,0"
             style=""
             id="path4390" />
          <path
             d="m -217.80941,371.96428 0,1.09812 -3.1061,0 0,8.11979 -1.26754,0 0,-8.11979 -3.10611,0 0,-1.09812 7.47975,0"
             style=""
             id="path4392" />
          <path
             d="m -216.81169,374.49309 1.14832,0 0,6.6891 -1.14832,0 0,-6.6891 m 0,-2.52881 1.14832,0 0,1.28009 -1.14832,0 0,-1.28009"
             style=""
             id="path4394" />
          <path
             d="m -213.97541,374.46171 1.07302,0 0,0.9538 c 0.31793,-0.39323 0.65468,-0.6756 1.01026,-0.84712 0.35558,-0.17151 0.7509,-0.25727 1.18597,-0.25728 0.95379,1e-5 1.59802,0.33258 1.93269,0.99772 0.18406,0.36395 0.27609,0.88477 0.2761,1.56246 l 0,4.3109 -1.14832,0 0,-4.2356 c -1e-5,-0.40995 -0.0607,-0.74044 -0.18197,-0.99144 -0.20081,-0.41832 -0.56476,-0.62749 -1.09185,-0.62749 -0.26773,0 -0.48736,0.0272 -0.65887,0.0816 -0.30957,0.092 -0.58148,0.2761 -0.81574,0.5522 -0.18825,0.22172 -0.31166,0.4518 -0.37022,0.69024 -0.0544,0.23427 -0.0816,0.57103 -0.0816,1.01027 l 0,3.52025 -1.12949,0 0,-6.72048 m 2.65431,-0.16315 0,0"
             style=""
             id="path4396" />
          <path
             d="m -202.62402,374.46171 1.24872,0 c -0.15897,0.43089 -0.51246,1.41396 -1.06047,2.94923 -0.40997,1.1546 -0.753,2.09584 -1.02909,2.82373 -0.6526,1.71516 -1.11276,2.76098 -1.38049,3.13748 -0.26774,0.37649 -0.7279,0.56474 -1.38049,0.56475 -0.15897,-10e-6 -0.28238,-0.006 -0.37022,-0.0188 -0.0837,-0.0125 -0.18825,-0.0356 -0.31375,-0.069 l 0,-1.0291 c 0.19661,0.0544 0.33884,0.0879 0.42669,0.1004 0.0879,0.0126 0.16524,0.0188 0.23218,0.0188 0.20916,0 0.36185,-0.0356 0.45807,-0.10668 0.1004,-0.0669 0.18406,-0.1506 0.251,-0.25099 0.0209,-0.0335 0.0962,-0.20499 0.2259,-0.51455 0.12968,-0.30957 0.2238,-0.53965 0.28237,-0.69025 l -2.48488,-6.915 1.28009,0 1.80091,5.47176 1.81346,-5.47176 m -1.81973,-0.16315 0,0"
             style=""
             id="path4398" />
          <path
             d="m -197.70445,375.96143 c 0.49781,0 0.88686,-0.13805 1.16714,-0.41415 0.28028,-0.28028 0.42042,-0.61285 0.42042,-0.99772 0,-0.33466 -0.13387,-0.64213 -0.40159,-0.92242 -0.26774,-0.28027 -0.67561,-0.42041 -1.22362,-0.42042 -0.54383,10e-6 -0.93706,0.14015 -1.17969,0.42042 -0.24263,0.28029 -0.36395,0.60868 -0.36395,0.98517 0,0.42252 0.15687,0.753 0.47062,0.99144 0.31375,0.23846 0.68397,0.35768 1.11067,0.35768 m 0.069,4.44894 c 0.52291,0 0.95589,-0.14014 1.29892,-0.42042 0.34721,-0.28446 0.52082,-0.70698 0.52082,-1.26754 0,-0.58148 -0.17779,-1.02282 -0.53337,-1.32402 -0.35558,-0.30119 -0.81156,-0.45179 -1.36794,-0.4518 -0.53965,10e-6 -0.98099,0.15479 -1.32402,0.46435 -0.33884,0.30539 -0.50827,0.72999 -0.50827,1.27382 0,0.46853 0.15478,0.87431 0.46435,1.21734 0.31375,0.33885 0.79692,0.50827 1.44951,0.50827 m -1.60638,-4.01597 c -0.31375,-0.13386 -0.55848,-0.29074 -0.73417,-0.47062 -0.33049,-0.33466 -0.49573,-0.76973 -0.49573,-1.30519 0,-0.66933 0.24264,-1.24453 0.7279,-1.72562 0.48526,-0.48107 1.17341,-0.72161 2.06446,-0.72162 0.86176,10e-6 1.53736,0.228 2.02681,0.68397 0.48944,0.45181 0.73416,0.981 0.73417,1.58757 -1e-5,0.56057 -0.14224,1.01445 -0.4267,1.36166 -0.15897,0.19662 -0.40578,0.38905 -0.74044,0.5773 0.37231,0.17152 0.66514,0.36813 0.87849,0.58984 0.39741,0.41834 0.59612,0.96217 0.59612,1.63149 0,0.79065 -0.26564,1.46207 -0.79692,2.01426 -0.53128,0.54802 -1.28218,0.82202 -2.2527,0.82202 -0.87432,0 -1.61476,-0.23635 -2.22134,-0.70907 -0.6024,-0.47689 -0.90359,-1.16714 -0.90359,-2.07073 0,-0.53128 0.12968,-0.98935 0.38904,-1.37422 0.25937,-0.38904 0.64423,-0.68606 1.1546,-0.89104"
             style=""
             id="path4400" />
          <path
             d="m -192.45859,378.89183 c 0.0753,0.64423 0.37441,1.08975 0.89732,1.33657 0.26773,0.1255 0.5773,0.18825 0.9287,0.18825 0.66932,0 1.16504,-0.21335 1.48716,-0.64005 0.32211,-0.4267 0.48317,-0.89941 0.48317,-1.41814 0,-0.62749 -0.19243,-1.11276 -0.57729,-1.45579 -0.38069,-0.34303 -0.83876,-0.51454 -1.37422,-0.51455 -0.38905,10e-6 -0.72371,0.0753 -1.00399,0.2259 -0.2761,0.15061 -0.51246,0.35977 -0.70907,0.6275 l -0.9789,-0.0565 0.68397,-4.83799 4.66857,0 0,1.09184 -3.82145,0 -0.38277,2.49744 c 0.20916,-0.15896 0.40787,-0.27819 0.59612,-0.35768 0.33466,-0.13804 0.72162,-0.20706 1.16087,-0.20707 0.82411,1e-5 1.52272,0.26565 2.09583,0.79692 0.57311,0.53128 0.85967,1.2048 0.85967,2.02054 0,0.84921 -0.26355,1.59802 -0.79064,2.24643 -0.52292,0.64841 -1.35958,0.97262 -2.50998,0.97262 -0.73208,0 -1.3805,-0.20498 -1.94524,-0.61495 -0.56056,-0.41414 -0.87431,-1.04791 -0.94124,-1.90131 l 1.17341,0"
             style=""
             id="path4402" />
        </g>
      </g>
      <path
         inkscape:connector-curvature="0"
         id="path5664"
         d="m 405.45417,197.55294 55.08584,0"
         style="fill:#b3b3b3;fill-opacity:1;stroke:#9d0000;stroke-width:2;stroke-linecap:butt;stroke-linejoin:miter;stroke-miterlimit:4;stroke-opacity:1;stroke-dasharray:none" />
      <path
         style="fill:#000000;fill-opacity:1;stroke:#000000;stroke-width:2;stroke-linecap:butt;stroke-linejoin:miter;stroke-miterlimit:4;stroke-opacity:1;stroke-dasharray:none"
         d="m 284.23736,249.00368 55.08584,0"
         id="path5666"
         inkscape:connector-curvature="0" />
      <path
         inkscape:connector-curvature="0"
         id="path5668"
         d="m 284.23736,232.50589 55.08584,0"
         style="fill:#b3b3b3;fill-opacity:1;stroke:#b2b2b2;stroke-width:2;stroke-linecap:butt;stroke-linejoin:miter;stroke-miterlimit:4;stroke-opacity:1;stroke-dasharray:none" />
      <path
         style="fill:#b3b3b3;fill-opacity:1;stroke:#b2b2b2;stroke-width:2;stroke-linecap:butt;stroke-linejoin:miter;stroke-miterlimit:4;stroke-opacity:1;stroke-dasharray:none"
         d="m 284.23736,214.88961 55.08584,0"
         id="path5670"
         inkscape:connector-curvature="0" />
      <path
         inkscape:connector-curvature="0"
         id="path5672"
         d="m 284.23736,197.01503 55.08584,0"
         style="fill:#b3b3b3;fill-opacity:1;stroke:#b2b2b2;stroke-width:2;stroke-linecap:butt;stroke-linejoin:miter;stroke-miterlimit:4;stroke-opacity:1;stroke-dasharray:none" />
      <path
         style="fill:#b3b3b3;fill-opacity:1;stroke:#b2b2b2;stroke-width:2.471668;stroke-linecap:butt;stroke-linejoin:miter;stroke-miterlimit:4;stroke-opacity:1;stroke-dasharray:none"
         d="m 405.98146,214.33036 84.1318,0"
         id="path5674"
         inkscape:connector-curvature="0" />
      <path
         inkscape:connector-curvature="0"
         id="path5676"
         d="m 405.99071,231.80683 84.64138,0"
         style="fill:#b3b3b3;fill-opacity:1;stroke:#b2b2b2;stroke-width:2.47914195;stroke-linecap:butt;stroke-linejoin:miter;stroke-miterlimit:4;stroke-opacity:1;stroke-dasharray:none" />
      <path
         style="fill:#b3b3b3;fill-opacity:1;stroke:#b2b2b2;stroke-width:2.471668;stroke-linecap:butt;stroke-linejoin:miter;stroke-miterlimit:4;stroke-opacity:1;stroke-dasharray:none"
         d="m 405.98146,248.44443 84.1318,0"
         id="path5678"
         inkscape:connector-curvature="0" />
      <path
         style="fill:#8080ff;fill-opacity:1;stroke:none"
         d="m 310.81259,192.55746 21.15915,0 c 1.03103,0 1.86106,0.83004 1.86106,1.86106 l 0,5.01053 c 0,1.03103 -0.83003,1.86106 -1.86106,1.86106 l -21.15915,0 c -1.03102,0 -1.86105,-0.83003 -1.86105,-1.86106 l 0,-5.01053 c 0,-1.03102 0.83003,-1.86106 1.86105,-1.86106 z"
         id="rect5682" />
      <g
         style="font-size:7.89124632px;font-style:normal;font-weight:normal;line-height:125%;letter-spacing:0px;word-spacing:0px;fill:#000000;fill-opacity:1;stroke:none;font-family:Sans"
         id="text5684">
        <path
           d="m 315.68583,199.4323 -0.99026,0 -1.91887,-2.28107 -1.07503,0 0,2.28107 -0.76292,0 0,-5.73734 1.60676,0 c 0.34678,1e-5 0.63577,0.0231 0.86696,0.0694 0.23119,0.0437 0.43926,0.1233 0.62421,0.23889 0.20807,0.13101 0.3699,0.2967 0.4855,0.49706 0.11816,0.1978 0.17724,0.44954 0.17724,0.75521 0,0.41358 -0.10404,0.76036 -0.3121,1.04035 -0.20808,0.27743 -0.49449,0.48679 -0.85925,0.62807 l 2.15776,2.5084 m -1.78401,-4.12287 c 0,-0.1644 -0.0295,-0.30953 -0.0886,-0.43541 -0.0565,-0.12843 -0.15156,-0.23632 -0.28513,-0.32366 -0.11046,-0.0745 -0.24147,-0.12587 -0.39302,-0.15413 -0.15156,-0.0308 -0.33009,-0.0462 -0.53559,-0.0462 l -0.89779,0 0,2.16546 0.77063,0 c 0.24146,1e-5 0.4521,-0.0205 0.63192,-0.0616 0.17981,-0.0437 0.33265,-0.12329 0.45852,-0.23889 0.1156,-0.10789 0.20036,-0.23119 0.25431,-0.3699 0.0565,-0.14128 0.0848,-0.31981 0.0848,-0.53559"
           style=""
           id="path4406" />
        <path
           d="m 319.97053,197.35545 -3.17114,0 c 0,0.26458 0.0398,0.49577 0.11945,0.69357 0.0796,0.19522 0.1888,0.35577 0.32751,0.48164 0.13358,0.1233 0.29156,0.21578 0.47394,0.27743 0.18495,0.0617 0.38788,0.0925 0.6088,0.0925 0.29283,0 0.58696,-0.0578 0.88237,-0.17339 0.29797,-0.11816 0.50989,-0.23376 0.63577,-0.34678 l 0.0385,0 0,0.78989 c -0.24404,0.10275 -0.49321,0.18881 -0.74751,0.25816 -0.25431,0.0694 -0.52146,0.10404 -0.80146,0.10404 -0.71411,0 -1.27154,-0.19266 -1.67226,-0.57797 -0.40073,-0.38789 -0.60109,-0.9376 -0.60109,-1.64915 0,-0.70384 0.19137,-1.26255 0.57412,-1.67612 0.38531,-0.41357 0.89136,-0.62035 1.51814,-0.62036 0.58053,1e-5 1.0275,0.16955 1.34089,0.50862 0.31596,0.33908 0.47393,0.82072 0.47394,1.44493 l 0,0.39302 m -0.70513,-0.55485 c -0.003,-0.38018 -0.0989,-0.6743 -0.28898,-0.88237 -0.18753,-0.20807 -0.47394,-0.31211 -0.85926,-0.31211 -0.38788,0 -0.69742,0.11431 -0.9286,0.34293 -0.22863,0.22862 -0.35835,0.51247 -0.38917,0.85155 l 2.46601,0"
           style=""
           id="path4408" />
        <path
           d="m 324.14349,198.19158 c -10e-6,0.39303 -0.16312,0.7154 -0.48935,0.96714 -0.32367,0.25174 -0.76678,0.37761 -1.32934,0.37761 -0.31853,0 -0.61137,-0.0373 -0.87852,-0.11174 -0.26458,-0.0771 -0.48678,-0.16055 -0.66659,-0.25045 l 0,-0.81302 0.0385,0 c 0.22862,0.17211 0.48293,0.30954 0.76292,0.41229 0.28,0.10018 0.54843,0.15027 0.80531,0.15027 0.31853,0 0.5677,-0.0514 0.74751,-0.15412 0.17981,-0.10275 0.26972,-0.26459 0.26972,-0.4855 0,-0.16954 -0.0488,-0.29798 -0.14642,-0.38532 -0.0976,-0.0873 -0.28513,-0.16183 -0.56256,-0.22348 -0.10275,-0.0231 -0.23761,-0.0501 -0.40458,-0.0809 -0.1644,-0.0308 -0.31467,-0.0642 -0.45081,-0.10019 -0.37761,-0.10018 -0.64605,-0.2466 -0.80531,-0.43926 -0.1567,-0.19522 -0.23504,-0.43411 -0.23504,-0.71668 0,-0.17724 0.036,-0.34421 0.10788,-0.50091 0.0745,-0.15669 0.18624,-0.29669 0.33523,-0.41999 0.14385,-0.12073 0.32623,-0.21578 0.54714,-0.28514 0.22349,-0.0719 0.47266,-0.10788 0.74752,-0.10788 0.25687,0 0.51631,0.0321 0.77833,0.0963 0.26458,0.0617 0.48421,0.13744 0.65889,0.22734 l 0,0.77448 -0.0385,0 c -0.18496,-0.13614 -0.40972,-0.25045 -0.6743,-0.34293 -0.26459,-0.095 -0.52403,-0.14256 -0.77834,-0.14256 -0.26458,0 -0.48807,0.0514 -0.67045,0.15412 -0.18238,0.10019 -0.27357,0.25046 -0.27357,0.45082 0,0.17725 0.0552,0.31082 0.16569,0.40073 0.10788,0.0899 0.28256,0.16312 0.52402,0.21963 0.13358,0.0308 0.28257,0.0617 0.44697,0.0925 0.16697,0.0308 0.30568,0.0591 0.41614,0.0848 0.3365,0.0771 0.59595,0.20936 0.77833,0.39688 0.18238,0.19009 0.27357,0.44183 0.27358,0.75521"
           style=""
           id="path4410" />
        <path
           d="m 328.78653,197.35545 -3.17114,0 c 0,0.26458 0.0398,0.49577 0.11945,0.69357 0.0796,0.19522 0.1888,0.35577 0.32751,0.48164 0.13358,0.1233 0.29156,0.21578 0.47394,0.27743 0.18495,0.0617 0.38788,0.0925 0.6088,0.0925 0.29284,0 0.58696,-0.0578 0.88237,-0.17339 0.29797,-0.11816 0.5099,-0.23376 0.63577,-0.34678 l 0.0385,0 0,0.78989 c -0.24404,0.10275 -0.49321,0.18881 -0.74751,0.25816 -0.25431,0.0694 -0.52146,0.10404 -0.80145,0.10404 -0.71412,0 -1.27154,-0.19266 -1.67227,-0.57797 -0.40073,-0.38789 -0.60109,-0.9376 -0.60109,-1.64915 0,-0.70384 0.19137,-1.26255 0.57412,-1.67612 0.38531,-0.41357 0.89136,-0.62035 1.51814,-0.62036 0.58054,1e-5 1.0275,0.16955 1.34089,0.50862 0.31596,0.33908 0.47394,0.82072 0.47394,1.44493 l 0,0.39302 m -0.70513,-0.55485 c -0.003,-0.38018 -0.0989,-0.6743 -0.28898,-0.88237 -0.18753,-0.20807 -0.47394,-0.31211 -0.85925,-0.31211 -0.38789,0 -0.69743,0.11431 -0.92861,0.34293 -0.22862,0.22862 -0.35835,0.51247 -0.38917,0.85155 l 2.46601,0"
           style=""
           id="path4412" />
        <path
           d="m 332.1195,199.39377 c -0.13614,0.036 -0.28513,0.0655 -0.44696,0.0886 -0.15927,0.0231 -0.30183,0.0347 -0.4277,0.0347 -0.43926,0 -0.7732,-0.11817 -1.00182,-0.35449 -0.22862,-0.23633 -0.34293,-0.61522 -0.34293,-1.13668 l 0,-2.28877 -0.48935,0 0,-0.6088 0.48935,0 0,-1.23686 0.72439,0 0,1.23686 1.49502,0 0,0.6088 -1.49502,0 0,1.96125 c 0,0.22605 0.005,0.4033 0.0154,0.53173 0.0103,0.12588 0.0462,0.24404 0.10789,0.35449 0.0565,0.10276 0.13358,0.17853 0.23119,0.22734 0.10018,0.0462 0.25174,0.0694 0.45467,0.0694 0.11816,0 0.24146,-0.0167 0.3699,-0.0501 0.12844,-0.036 0.22092,-0.0655 0.27743,-0.0886 l 0.0385,0 0,0.65119"
           style=""
           id="path4414" />
      </g>
      <path
         style="fill:#b3b3b3;fill-opacity:1;stroke:none"
         d="m 315.5123,244.34804 16.50513,0 c 1.04982,0 1.89498,0.84516 1.89498,1.89498 l 0,5.10189 c 0,1.04982 -0.84516,1.89498 -1.89498,1.89498 l -16.50513,0 c -1.04983,0 -1.89499,-0.84516 -1.89499,-1.89498 l 0,-5.10189 c 0,-1.04982 0.84516,-1.89498 1.89499,-1.89498 z"
         id="rect5692" />
      <path
         style="fill:#ffcc00;fill-opacity:1;stroke:none"
         d="m 414.08127,209.64577 9.42483,0 c 1.02331,0 1.84714,0.82382 1.84714,1.84713 l 0,4.97306 c 0,1.02331 -0.82383,1.84713 -1.84714,1.84713 l -9.42483,0 c -1.02332,0 -1.84714,-0.82382 -1.84714,-1.84713 l 0,-4.97306 c 0,-1.02331 0.82382,-1.84713 1.84714,-1.84713 z"
         id="rect5698" />
      <path
         style="fill:#b3b3b3;fill-opacity:1;stroke:none"
         d="m 414.26187,193.11412 13.21587,0 c 1.06465,0 1.92175,0.8571 1.92175,1.92175 l 0,5.17393 c 0,1.06465 -0.8571,1.92175 -1.92175,1.92175 l -13.21587,0 c -1.06465,0 -1.92175,-0.8571 -1.92175,-1.92175 l 0,-5.17393 c 0,-1.06465 0.8571,-1.92175 1.92175,-1.92175 z"
         id="rect5700" />
      <g
         style="font-size:7.89124632px;font-style:normal;font-weight:normal;line-height:125%;letter-spacing:0px;word-spacing:0px;fill:#000000;fill-opacity:1;stroke:none;font-family:Sans"
         id="text5702">
        <path
           d="m 419.80825,198.60924 c 0,0.26715 -0.0488,0.52274 -0.14642,0.76678 -0.0976,0.24403 -0.23119,0.44953 -0.40073,0.6165 -0.18495,0.17981 -0.40586,0.31853 -0.66274,0.41614 -0.25431,0.095 -0.54972,0.14257 -0.88622,0.14257 -0.31339,0 -0.61522,-0.0334 -0.90549,-0.10019 -0.29027,-0.0642 -0.53559,-0.14256 -0.73595,-0.23504 l 0,-0.81301 0.0539,0 c 0.21064,0.13357 0.45724,0.24788 0.73981,0.34293 0.28256,0.0925 0.55998,0.13871 0.83228,0.13871 0.18238,0 0.35834,-0.0257 0.52788,-0.0771 0.1721,-0.0514 0.32494,-0.14128 0.45852,-0.26972 0.11302,-0.11046 0.19779,-0.24275 0.25431,-0.39688 0.0591,-0.15412 0.0886,-0.33265 0.0886,-0.53558 0,-0.1978 -0.0347,-0.36477 -0.10403,-0.50091 -0.0668,-0.13615 -0.16055,-0.24532 -0.28128,-0.32752 -0.13358,-0.0976 -0.2967,-0.16568 -0.48935,-0.20422 -0.19009,-0.0411 -0.4033,-0.0617 -0.63963,-0.0617 -0.22605,0 -0.44439,0.0154 -0.65503,0.0462 -0.20807,0.0308 -0.38789,0.0616 -0.53944,0.0925 l 0,-2.95537 3.45242,0 0,0.6743 -2.70876,0 0,1.52585 c 0.11045,-0.0103 0.22348,-0.018 0.33907,-0.0231 0.1156,-0.005 0.21578,-0.008 0.30055,-0.008 0.31082,10e-6 0.58311,0.027 0.81687,0.0809 0.23375,0.0514 0.44824,0.14385 0.64347,0.27743 0.2055,0.14128 0.36476,0.32366 0.47779,0.54714 0.11302,0.22349 0.16954,0.50348 0.16954,0.83999"
           style=""
           id="path4420" />
        <path
           d="m 425.66889,194.69444 -2.08841,5.73734 -1.01723,0 -2.0884,-5.73734 0.81686,0 1.79942,5.04762 1.79942,-5.04762 0.77834,0"
           style=""
           id="path4422" />
      </g>
      <g
         style="font-size:7.89124632px;font-style:normal;font-weight:normal;line-height:125%;letter-spacing:0px;word-spacing:0px;fill:#000000;fill-opacity:1;stroke:none;font-family:Sans"
         id="text5706">
        <path
           d="m 420.73568,217.27029 -3.88397,0 0,-0.8053 c 0.26972,-0.23119 0.53944,-0.46238 0.80916,-0.69357 0.27229,-0.23119 0.52531,-0.46109 0.75907,-0.68971 0.4932,-0.47779 0.83099,-0.85668 1.01338,-1.13668 0.18238,-0.28256 0.27357,-0.58696 0.27357,-0.9132 0,-0.29797 -0.0989,-0.53044 -0.29669,-0.69742 -0.19523,-0.16953 -0.4688,-0.2543 -0.82072,-0.25431 -0.23376,1e-5 -0.48678,0.0411 -0.75907,0.12331 -0.27229,0.0822 -0.53816,0.20807 -0.7976,0.3776 l -0.0385,0 0,-0.80916 c 0.18238,-0.0899 0.42513,-0.1721 0.72824,-0.2466 0.30568,-0.0745 0.60109,-0.11173 0.88623,-0.11174 0.58824,1e-5 1.04933,0.14257 1.38328,0.4277 0.33393,0.28257 0.5009,0.6666 0.50091,1.15209 -10e-6,0.21835 -0.0283,0.42257 -0.0848,0.61265 -0.0539,0.18752 -0.13487,0.36605 -0.24275,0.53559 -0.10019,0.15926 -0.21835,0.31596 -0.35449,0.47008 -0.13358,0.15413 -0.2967,0.32495 -0.48935,0.51247 -0.27486,0.26972 -0.55871,0.53174 -0.85155,0.78604 -0.29284,0.25174 -0.56641,0.4855 -0.82072,0.70128 l 3.08637,0 0,0.65888"
           style=""
           id="path4425" />
      </g>
      <g
         id="g5767">
        <path
           style="fill:#ffcc00;fill-opacity:1;stroke:none"
           d="m 414.08127,227.69086 9.42483,0 c 1.02331,0 1.84714,0.82382 1.84714,1.84713 l 0,4.97305 c 0,1.02332 -0.82383,1.84714 -1.84714,1.84714 l -9.42483,0 c -1.02332,0 -1.84714,-0.82382 -1.84714,-1.84714 l 0,-4.97305 c 0,-1.02331 0.82382,-1.84713 1.84714,-1.84713 z"
           id="rect5696" />
        <g
           style="font-size:7.89124632px;font-style:normal;font-weight:normal;line-height:125%;letter-spacing:0px;word-spacing:0px;fill:#000000;fill-opacity:1;stroke:none;font-family:Sans"
           id="text5710">
          <path
             d="m 420.34649,234.90282 -3.10564,0 0,-0.58568 1.19448,0 0,-3.84544 -1.19448,0 0,-0.52403 c 0.16183,0 0.33523,-0.0128 0.52018,-0.0385 0.18495,-0.0283 0.32494,-0.0681 0.41999,-0.11945 0.11816,-0.0642 0.21064,-0.14513 0.27743,-0.24275 0.0693,-0.10017 0.10917,-0.23375 0.11944,-0.40073 l 0.59724,0 0,5.17093 1.17136,0 0,0.58568"
             style=""
             id="path4429" />
        </g>
      </g>
      <g
         id="g5762">
        <path
           style="fill:#ffcc00;fill-opacity:1;stroke:none"
           d="m 414.08127,244.74133 9.42483,0 c 1.02331,0 1.84714,0.82382 1.84714,1.84714 l 0,4.97305 c 0,1.02331 -0.82383,1.84714 -1.84714,1.84714 l -9.42483,0 c -1.02332,0 -1.84714,-0.82383 -1.84714,-1.84714 l 0,-4.97305 c 0,-1.02332 0.82382,-1.84714 1.84714,-1.84714 z"
           id="rect5694" />
        <g
           style="font-size:7.89124632px;font-style:normal;font-weight:normal;line-height:125%;letter-spacing:0px;word-spacing:0px;fill:#000000;fill-opacity:1;stroke:none;font-family:Sans"
           id="text5714">
          <path
             d="m 420.77806,249.07115 c -10e-6,1.03007 -0.16184,1.78657 -0.4855,2.2695 -0.3211,0.48036 -0.82072,0.72054 -1.49887,0.72054 -0.68844,0 -1.19191,-0.24403 -1.51044,-0.7321 -0.31596,-0.48806 -0.47394,-1.23814 -0.47394,-2.25024 0,-1.01979 0.16055,-1.77244 0.48165,-2.25794 0.32109,-0.48806 0.822,-0.73209 1.50273,-0.7321 0.68842,1e-5 1.19061,0.24789 1.50658,0.74366 0.31852,0.49321 0.47778,1.23943 0.47779,2.23868 m -1.01338,1.74933 c 0.0899,-0.20807 0.15027,-0.45211 0.1811,-0.7321 0.0334,-0.28256 0.0501,-0.62164 0.0501,-1.01723 -1e-5,-0.39045 -0.0167,-0.72953 -0.0501,-1.01723 -0.0308,-0.2877 -0.0925,-0.53173 -0.18495,-0.7321 -0.0899,-0.19779 -0.21322,-0.34678 -0.36991,-0.44697 -0.15413,-0.10017 -0.3532,-0.15026 -0.59723,-0.15027 -0.24147,1e-5 -0.44183,0.0501 -0.6011,0.15027 -0.15669,0.10019 -0.28128,0.25175 -0.37375,0.45467 -0.0873,0.1901 -0.14771,0.43798 -0.1811,0.74366 -0.0308,0.30569 -0.0462,0.64091 -0.0462,1.00567 0,0.40073 0.0141,0.73596 0.0424,1.00567 0.0283,0.26973 0.0886,0.51119 0.1811,0.7244 0.0848,0.20036 0.20421,0.3532 0.35834,0.45852 0.15669,0.10532 0.36348,0.15798 0.62036,0.15798 0.24146,0 0.44182,-0.0501 0.60109,-0.15027 0.15926,-0.10018 0.28256,-0.25174 0.3699,-0.45467"
             style=""
             id="path4433" />
        </g>
      </g>
      <g
         style="font-size:7.89124632px;font-style:normal;font-weight:normal;line-height:125%;letter-spacing:0px;word-spacing:0px;fill:#000000;fill-opacity:1;stroke:none;font-family:Sans"
         id="text5718">
        <path
           d="m 320.93374,251.21615 c -0.31339,0.14385 -0.65632,0.26972 -1.02879,0.37761 -0.36991,0.10532 -0.72825,0.15798 -1.07503,0.15798 -0.44697,0 -0.85668,-0.0617 -1.22915,-0.18495 -0.37247,-0.1233 -0.68972,-0.30825 -0.95173,-0.55485 -0.26458,-0.24917 -0.4688,-0.55999 -0.61265,-0.93247 -0.14385,-0.37503 -0.21578,-0.81301 -0.21578,-1.31392 0,-0.91704 0.26716,-1.64015 0.80146,-2.16932 0.53687,-0.53173 1.27282,-0.7976 2.20785,-0.7976 0.32623,0 0.65889,0.0398 0.99797,0.11945 0.34164,0.0771 0.70897,0.20936 1.102,0.39687 l 0,0.90549 -0.0694,0 c -0.0796,-0.0616 -0.19523,-0.14256 -0.34678,-0.24275 -0.15156,-0.10018 -0.30055,-0.18366 -0.44697,-0.25045 -0.17725,-0.0796 -0.37889,-0.14513 -0.60494,-0.19651 -0.22349,-0.0539 -0.47779,-0.0809 -0.76292,-0.0809 -0.6422,0 -1.15081,0.20679 -1.52585,0.62036 -0.37247,0.411 -0.55871,0.96842 -0.55871,1.67226 0,0.74238 0.19523,1.32035 0.58568,1.73392 0.39045,0.411 0.92219,0.6165 1.5952,0.6165 0.2466,0 0.49192,-0.0244 0.73596,-0.0732 0.24659,-0.0488 0.46237,-0.11174 0.64732,-0.1888 l 0,-1.4064 -1.5374,0 0,-0.67045 2.29262,0 0,2.46216"
           style=""
           id="path4436" />
        <path
           d="m 326.64411,251.64 -0.94403,0 -2.72032,-5.13239 0,5.13239 -0.71283,0 0,-5.73734 1.18292,0 2.48142,4.68543 0,-4.68543 0.71284,0 0,5.73734"
           style=""
           id="path4438" />
        <path
           d="m 333.01721,248.77711 c 0,0.52146 -0.11431,0.99411 -0.34293,1.41796 -0.22605,0.42385 -0.52788,0.75265 -0.90549,0.9864 -0.26202,0.16184 -0.55486,0.27872 -0.87852,0.35064 -0.32109,0.0719 -0.74494,0.10789 -1.27153,0.10789 l -1.44879,0 0,-5.73734 1.43337,0 c 0.55999,1e-5 1.00439,0.0411 1.33319,0.1233 0.33137,0.0796 0.61136,0.1901 0.83999,0.33137 0.39045,0.24404 0.69484,0.56899 0.91319,0.97485 0.21834,0.40587 0.32752,0.88751 0.32752,1.44493 m -0.7976,-0.0116 c 0,-0.44953 -0.0784,-0.82842 -0.23504,-1.13668 -0.1567,-0.30824 -0.39046,-0.55099 -0.70127,-0.72824 -0.22606,-0.12844 -0.46624,-0.21706 -0.72054,-0.26587 -0.25431,-0.0514 -0.55871,-0.0771 -0.9132,-0.0771 l -0.71668,0 0,4.42726 0.71668,0 c 0.36733,0 0.68714,-0.027 0.95943,-0.0809 0.27486,-0.054 0.5266,-0.15413 0.75522,-0.30055 0.28513,-0.18238 0.49834,-0.42256 0.63962,-0.72054 0.14385,-0.29797 0.21578,-0.67044 0.21578,-1.11741"
           style=""
           id="path4440" />
      </g>
      <g
         id="g5749">
        <path
           style="fill:#ffcc00;fill-opacity:1;stroke:none"
           d="m 321.6673,228.56496 10.52225,0 c 1.03134,0 1.86163,0.83029 1.86163,1.86163 l 0,5.0121 c 0,1.03135 -0.83029,1.86164 -1.86163,1.86164 l -10.52225,0 c -1.03135,0 -1.86164,-0.83029 -1.86164,-1.86164 l 0,-5.0121 c 0,-1.03134 0.83029,-1.86163 1.86164,-1.86163 z"
           id="rect5690" />
        <g
           style="font-size:7.89124632px;font-style:normal;font-weight:normal;line-height:125%;letter-spacing:0px;word-spacing:0px;fill:#000000;fill-opacity:1;stroke:none;font-family:Sans"
           id="text5722">
          <path
             d="m 329.09774,233.69155 -0.85155,0 0,1.61447 -0.7398,0 0,-1.61447 -2.7473,0 0,-0.88623 2.77812,-3.23664 0.70898,0 0,3.50636 0.85155,0 0,0.61651 m -1.59135,-0.61651 0,-2.58931 -2.22327,2.58931 2.22327,0"
             style=""
             id="path4444" />
        </g>
      </g>
      <g
         id="g5736">
        <path
           style="fill:#ffcc00;fill-opacity:1;stroke:none"
           d="m 321.6673,210.23499 10.52225,0 c 1.03134,0 1.86163,0.83029 1.86163,1.86163 l 0,5.0121 c 0,1.03135 -0.83029,1.86164 -1.86163,1.86164 l -10.52225,0 c -1.03135,0 -1.86164,-0.83029 -1.86164,-1.86164 l 0,-5.0121 c 0,-1.03134 0.83029,-1.86163 1.86164,-1.86163 z"
           id="rect5688" />
        <g
           style="font-size:7.89124632px;font-style:normal;font-weight:normal;line-height:125%;letter-spacing:0px;word-spacing:0px;fill:#000000;fill-opacity:1;stroke:none;font-family:Sans"
           id="text5726">
          <path
             d="m 328.39456,215.20665 c 0.12329,0.11046 0.22476,0.24918 0.30439,0.41614 0.0796,0.16698 0.11945,0.38275 0.11945,0.64733 0,0.26202 -0.0475,0.5022 -0.14256,0.72054 -0.0951,0.21835 -0.22863,0.40844 -0.40073,0.57027 -0.19266,0.17981 -0.42,0.31339 -0.68201,0.40072 -0.25945,0.0848 -0.54458,0.12716 -0.8554,0.12716 -0.31853,0 -0.63192,-0.0385 -0.94017,-0.1156 -0.30825,-0.0745 -0.56127,-0.15669 -0.75907,-0.2466 l 0,-0.80531 0.0578,0 c 0.21835,0.14386 0.47522,0.2633 0.77063,0.35835 0.29541,0.095 0.58054,0.14256 0.8554,0.14256 0.16183,0 0.33394,-0.027 0.51632,-0.0809 0.18238,-0.0539 0.33009,-0.13358 0.44311,-0.2389 0.11816,-0.11302 0.2055,-0.23761 0.26202,-0.37375 0.0591,-0.13615 0.0886,-0.30825 0.0886,-0.51632 0,-0.2055 -0.0334,-0.37504 -0.10018,-0.50862 -0.0642,-0.13614 -0.15413,-0.24275 -0.26972,-0.31981 -0.1156,-0.0796 -0.2556,-0.13357 -0.41999,-0.16183 -0.16441,-0.0308 -0.34165,-0.0462 -0.53174,-0.0462 l -0.34678,0 0,-0.63962 0.26972,0 c 0.39045,0 0.70127,-0.0809 0.93246,-0.24275 0.23375,-0.1644 0.35063,-0.40329 0.35064,-0.71669 -10e-6,-0.13871 -0.0295,-0.25944 -0.0886,-0.36219 -0.0591,-0.10532 -0.14128,-0.19137 -0.2466,-0.25816 -0.11046,-0.0668 -0.22862,-0.11303 -0.35449,-0.13872 -0.12587,-0.0257 -0.26844,-0.0385 -0.4277,-0.0385 -0.24403,1e-5 -0.50348,0.0437 -0.77833,0.13101 -0.27486,0.0873 -0.53431,0.21064 -0.77834,0.3699 l -0.0385,0 0,-0.80531 c 0.18238,-0.0899 0.42513,-0.1721 0.72824,-0.2466 0.30569,-0.0771 0.60109,-0.11559 0.88623,-0.11559 0.27999,0 0.52659,0.0257 0.7398,0.0771 0.21321,0.0514 0.40586,0.13358 0.57798,0.2466 0.18494,0.12331 0.32494,0.27229 0.41999,0.44697 0.095,0.17468 0.14256,0.37889 0.14256,0.61265 0,0.31853 -0.11302,0.59724 -0.33907,0.83613 -0.22349,0.23633 -0.48807,0.38532 -0.79375,0.44696 l 0,0.0539 c 0.1233,0.0206 0.26458,0.0642 0.42385,0.13101 0.15926,0.0642 0.29412,0.14513 0.40458,0.24274"
             style=""
             id="path4448" />
        </g>
      </g>
      <path
         style="fill:#00ff00;fill-opacity:1;stroke:none"
         d="m 431.70562,209.64577 9.42484,0 c 1.02331,0 1.84714,0.82382 1.84714,1.84713 l 0,4.97306 c 0,1.02331 -0.82383,1.84713 -1.84714,1.84713 l -9.42484,0 c -1.02331,0 -1.84713,-0.82382 -1.84713,-1.84713 l 0,-4.97306 c 0,-1.02331 0.82382,-1.84713 1.84713,-1.84713 z"
         id="rect5730" />
      <g
         style="font-size:7.89124632px;font-style:normal;font-weight:normal;line-height:125%;letter-spacing:0px;word-spacing:0px;fill:#000000;fill-opacity:1;stroke:none;font-family:Sans"
         id="text5732">
        <path
           d="m 436.87656,216.85773 -0.81301,0 -0.56256,-1.59906 -2.48143,0 -0.56256,1.59906 -0.77448,0 2.0884,-5.73734 1.01724,0 2.0884,5.73734 m -1.61061,-2.25409 -1.00568,-2.81666 -1.00952,2.81666 2.0152,0"
           style=""
           id="path4452" />
        <path
           d="m 441.15356,216.85773 -3.10564,0 0,-0.58568 1.19447,0 0,-3.84544 -1.19447,0 0,-0.52403 c 0.16183,0 0.33522,-0.0128 0.52017,-0.0385 0.18495,-0.0282 0.32495,-0.0681 0.42,-0.11945 0.11816,-0.0642 0.21063,-0.14513 0.27742,-0.24275 0.0694,-0.10017 0.10917,-0.23375 0.11945,-0.40073 l 0.59724,0 0,5.17093 1.17136,0 0,0.58568"
           style=""
           id="path4454" />
      </g>
      <g
         transform="translate(-18.58603,0)"
         id="g5741">
        <path
           style="fill:#00ff00;fill-opacity:1;stroke:none"
           d="m 321.74811,210.23499 10.52225,0 c 1.03134,0 1.86163,0.83029 1.86163,1.86163 l 0,5.0121 c 0,1.03135 -0.83029,1.86164 -1.86163,1.86164 l -10.52225,0 c -1.03135,0 -1.86164,-0.83029 -1.86164,-1.86164 l 0,-5.0121 c 0,-1.03134 0.83029,-1.86163 1.86164,-1.86163 z"
           id="rect5743" />
        <g
           style="font-size:7.89124632px;font-style:normal;font-weight:normal;line-height:125%;letter-spacing:0px;word-spacing:0px;fill:#000000;fill-opacity:1;stroke:none;font-family:Sans"
           id="text5745">
          <path
             d="m 327.34446,217.47134 -0.81302,0 -0.56256,-1.59905 -2.48142,0 -0.56256,1.59905 -0.77449,0 2.08841,-5.73733 1.01723,0 2.08841,5.73733 m -1.61062,-2.25409 -1.00567,-2.81665 -1.00953,2.81665 2.0152,0"
             style=""
             id="path4458" />
          <path
             d="m 331.44421,214.70864 c 0.12329,0.11046 0.22476,0.24917 0.30439,0.41614 0.0796,0.16697 0.11945,0.38275 0.11945,0.64733 0,0.26201 -0.0475,0.50219 -0.14256,0.72053 -0.095,0.21835 -0.22863,0.40844 -0.40073,0.57027 -0.19266,0.17981 -0.42,0.31339 -0.68201,0.40073 -0.25945,0.0848 -0.54458,0.12715 -0.8554,0.12715 -0.31853,0 -0.63192,-0.0385 -0.94017,-0.11559 -0.30825,-0.0745 -0.56127,-0.1567 -0.75907,-0.2466 l 0,-0.80531 0.0578,0 c 0.21835,0.14385 0.47522,0.2633 0.77063,0.35834 0.29541,0.095 0.58054,0.14257 0.8554,0.14257 0.16183,0 0.33394,-0.027 0.51632,-0.0809 0.18238,-0.0539 0.33008,-0.13357 0.44311,-0.23889 0.11816,-0.11303 0.2055,-0.23761 0.26202,-0.37376 0.0591,-0.13614 0.0886,-0.30825 0.0886,-0.51632 0,-0.2055 -0.0334,-0.37504 -0.10018,-0.50862 -0.0642,-0.13614 -0.15413,-0.24274 -0.26972,-0.31981 -0.1156,-0.0796 -0.2556,-0.13357 -0.42,-0.16183 -0.1644,-0.0308 -0.34164,-0.0462 -0.53173,-0.0462 l -0.34678,0 0,-0.63962 0.26972,0 c 0.39045,0 0.70127,-0.0809 0.93246,-0.24275 0.23375,-0.1644 0.35063,-0.40329 0.35064,-0.71668 -1e-5,-0.13871 -0.0296,-0.25944 -0.0886,-0.3622 -0.0591,-0.10531 -0.14128,-0.19137 -0.2466,-0.25816 -0.11046,-0.0668 -0.22862,-0.11302 -0.35449,-0.13871 -0.12587,-0.0257 -0.26844,-0.0385 -0.4277,-0.0385 -0.24403,1e-5 -0.50348,0.0437 -0.77833,0.13101 -0.27486,0.0873 -0.53431,0.21064 -0.77834,0.3699 l -0.0385,0 0,-0.8053 c 0.18238,-0.0899 0.42513,-0.17211 0.72824,-0.24661 0.30569,-0.0771 0.60109,-0.11558 0.88623,-0.11559 0.27999,10e-6 0.52659,0.0257 0.7398,0.0771 0.21321,0.0514 0.40586,0.13358 0.57798,0.2466 0.18494,0.12331 0.32494,0.2723 0.41999,0.44697 0.095,0.17468 0.14256,0.3789 0.14256,0.61265 0,0.31853 -0.11303,0.59724 -0.33907,0.83613 -0.22349,0.23633 -0.48807,0.38532 -0.79375,0.44697 l 0,0.0539 c 0.1233,0.0206 0.26458,0.0642 0.42385,0.13101 0.15926,0.0642 0.29412,0.14514 0.40458,0.24275"
             style=""
             id="path4460" />
        </g>
      </g>
      <g
         style="fill:#00ff00"
         transform="translate(-18.783753,0)"
         id="g5754">
        <path
           style="fill:#00ff00;fill-opacity:1;stroke:none"
           d="m 321.82227,228.56496 10.52224,0 c 1.03135,0 1.86164,0.83029 1.86164,1.86163 l 0,5.0121 c 0,1.03135 -0.83029,1.86164 -1.86164,1.86164 l -10.52224,0 c -1.03135,0 -1.86164,-0.83029 -1.86164,-1.86164 l 0,-5.0121 c 0,-1.03134 0.83029,-1.86163 1.86164,-1.86163 z"
           id="rect5756" />
        <g
           style="font-size:7.89124632px;font-style:normal;font-weight:normal;line-height:125%;letter-spacing:0px;word-spacing:0px;fill:#000000;fill-opacity:1;stroke:none;font-family:Sans"
           id="text5758">
          <path
             d="m 327.37818,235.86104 -0.81302,0 -0.56256,-1.59906 -2.48142,0 -0.56256,1.59906 -0.77448,0 2.0884,-5.73734 1.01723,0 2.08841,5.73734 m -1.61062,-2.25409 -1.00567,-2.81665 -1.00952,2.81665 2.01519,0"
             style=""
             id="path4464" />
          <path
             d="m 331.98269,235.86104 -3.88397,0 0,-0.80531 c 0.26972,-0.23119 0.53944,-0.46238 0.80916,-0.69357 0.27229,-0.23118 0.52531,-0.46109 0.75907,-0.68971 0.4932,-0.47779 0.83099,-0.85668 1.01338,-1.13668 0.18238,-0.28256 0.27357,-0.58696 0.27357,-0.91319 0,-0.29798 -0.0989,-0.53045 -0.29669,-0.69742 -0.19523,-0.16954 -0.4688,-0.25431 -0.82072,-0.25431 -0.23376,0 -0.48679,0.0411 -0.75907,0.1233 -0.27229,0.0822 -0.53816,0.20807 -0.7976,0.37761 l -0.0385,0 0,-0.80916 c 0.18239,-0.0899 0.42513,-0.17211 0.72825,-0.2466 0.30568,-0.0745 0.60109,-0.11174 0.88622,-0.11175 0.58825,10e-6 1.04934,0.14258 1.38328,0.4277 0.33394,0.28257 0.50091,0.6666 0.50091,1.15209 0,0.21835 -0.0283,0.42257 -0.0848,0.61265 -0.0539,0.18753 -0.13486,0.36606 -0.24275,0.53559 -0.10018,0.15927 -0.21834,0.31596 -0.35449,0.47009 -0.13357,0.15412 -0.29669,0.32495 -0.48934,0.51246 -0.27487,0.26973 -0.55871,0.53174 -0.85155,0.78605 -0.29284,0.25174 -0.56641,0.48549 -0.82072,0.70127 l 3.08637,0 0,0.65889"
             style=""
             id="path4466" />
        </g>
      </g>
      <g
         style="fill:#ff7f2a"
         transform="translate(17.736913,0)"
         id="g5772">
        <path
           style="fill:#ff7f2a;fill-opacity:1;stroke:none"
           d="m 414.08127,227.69086 21.37391,0 c 1.02331,0 1.84713,0.82382 1.84713,1.84713 l 0,4.97305 c 0,1.02332 -0.82382,1.84714 -1.84713,1.84714 l -21.37391,0 c -1.02332,0 -1.84714,-0.82382 -1.84714,-1.84714 l 0,-4.97305 c 0,-1.02331 0.82382,-1.84713 1.84714,-1.84713 z"
           id="rect5774" />
        <g
           style="font-size:7.89124631999999959px;font-style:normal;font-weight:normal;line-height:125%;letter-spacing:0px;word-spacing:0px;fill-opacity:1;stroke:none;font-family:Sans;fill:#000000"
           id="text5776">
          <path
             d="m 419.68592,230.88977 c -1e-5,0.25431 -0.045,0.49064 -0.13486,0.70898 -0.0873,0.21578 -0.21064,0.4033 -0.3699,0.56256 -0.1978,0.19779 -0.43156,0.34678 -0.70128,0.44696 -0.26972,0.0976 -0.61008,0.14642 -1.02108,0.14642 l -0.76292,0 0,2.1385 -0.76293,0 0,-5.73734 1.55667,0 c 0.34422,1e-5 0.63577,0.0296 0.87467,0.0886 0.23889,0.0565 0.45081,0.14643 0.63577,0.26972 0.21834,0.14643 0.38659,0.32881 0.50476,0.54715 0.12073,0.21835 0.18109,0.49449 0.1811,0.82843 m -0.79375,0.0193 c 0,-0.19779 -0.0347,-0.36989 -0.10404,-0.51632 -0.0694,-0.14641 -0.17467,-0.26586 -0.31595,-0.35834 -0.12331,-0.0796 -0.26459,-0.13614 -0.42385,-0.16954 -0.1567,-0.036 -0.35578,-0.0539 -0.59724,-0.0539 l -0.75521,0 0,2.29262 0.64347,0 c 0.30825,0 0.55871,-0.027 0.75137,-0.0809 0.19265,-0.0565 0.34934,-0.14513 0.47008,-0.26586 0.12073,-0.1233 0.2055,-0.25302 0.25431,-0.38917 0.0514,-0.13614 0.0771,-0.28898 0.0771,-0.45853"
             style="fill:#000000;fill-opacity:1"
             id="path4190" />
          <path
             d="m 427.37295,229.15585 -1.49117,5.73734 -0.85925,0 -1.20604,-4.76249 -1.17906,4.76249 -0.83999,0 -1.51814,-5.73734 0.78219,0 1.20604,4.7702 1.18677,-4.7702 0.77448,0 1.19833,4.81644 1.19833,-4.81644 0.74751,0"
             style="fill:#000000;fill-opacity:1"
             id="path4192" />
          <path
             d="m 433.60349,234.89319 -0.76293,0 0,-4.94359 -1.5952,3.3638 -0.45467,0 -1.58364,-3.3638 0,4.94359 -0.71284,0 0,-5.73734 1.04035,0 1.5297,3.19426 1.47961,-3.19426 1.05962,0 0,5.73734"
             style="fill:#000000;fill-opacity:1"
             id="path4194" />
        </g>
      </g>
      <g
         style="fill:#ff7f2a"
         transform="translate(18.110322,0)"
         id="g5780">
        <path
           style="fill:#ff7f2a;fill-opacity:1;stroke:none"
           d="m 414.08127,244.74133 21.37391,0 c 1.02331,0 1.84713,0.82382 1.84713,1.84714 l 0,4.97305 c 0,1.02331 -0.82382,1.84714 -1.84713,1.84714 l -21.37391,0 c -1.02332,0 -1.84714,-0.82383 -1.84714,-1.84714 l 0,-4.97305 c 0,-1.02332 0.82382,-1.84714 1.84714,-1.84714 z"
           id="rect5782" />
        <g
           style="font-size:7.89124631999999959px;font-style:normal;font-weight:normal;line-height:125%;letter-spacing:0px;word-spacing:0px;fill-opacity:1;stroke:none;font-family:Sans;fill:#000000"
           id="text5784">
          <path
             d="m 419.68592,247.94024 c -1e-5,0.25432 -0.045,0.49064 -0.13486,0.70898 -0.0873,0.21578 -0.21064,0.4033 -0.3699,0.56256 -0.1978,0.1978 -0.43156,0.34679 -0.70128,0.44697 -0.26972,0.0976 -0.61008,0.14642 -1.02108,0.14642 l -0.76292,0 0,2.13849 -0.76293,0 0,-5.73733 1.55667,0 c 0.34422,0 0.63577,0.0295 0.87467,0.0886 0.23889,0.0565 0.45081,0.14643 0.63577,0.26972 0.21834,0.14643 0.38659,0.32881 0.50476,0.54715 0.12073,0.21835 0.18109,0.49449 0.1811,0.82842 m -0.79375,0.0193 c 0,-0.19779 -0.0347,-0.3699 -0.10404,-0.51632 -0.0694,-0.14642 -0.17467,-0.26586 -0.31595,-0.35834 -0.12331,-0.0796 -0.26459,-0.13614 -0.42385,-0.16954 -0.1567,-0.036 -0.35578,-0.0539 -0.59724,-0.054 l -0.75521,0 0,2.29263 0.64347,0 c 0.30825,0 0.55871,-0.027 0.75137,-0.0809 0.19265,-0.0565 0.34934,-0.14513 0.47008,-0.26587 0.12073,-0.1233 0.2055,-0.25302 0.25431,-0.38917 0.0514,-0.13614 0.0771,-0.28898 0.0771,-0.45852"
             style="fill:#000000;fill-opacity:1"
             id="path4197" />
          <path
             d="m 427.37295,246.20633 -1.49117,5.73733 -0.85925,0 -1.20604,-4.76249 -1.17906,4.76249 -0.83999,0 -1.51814,-5.73733 0.78219,0 1.20604,4.77019 1.18677,-4.77019 0.77448,0 1.19833,4.81643 1.19833,-4.81643 0.74751,0"
             style="fill:#000000;fill-opacity:1"
             id="path4199" />
          <path
             d="m 433.60349,251.94366 -0.76293,0 0,-4.94358 -1.5952,3.36379 -0.45467,0 -1.58364,-3.36379 0,4.94358 -0.71284,0 0,-5.73733 1.04035,0 1.5297,3.19426 1.47961,-3.19426 1.05962,0 0,5.73733"
             style="fill:#000000;fill-opacity:1"
             id="path4201" />
        </g>
      </g>
      <g
         id="g5788"
         transform="translate(47.573412,0)"
         style="fill:#8080ff">
        <path
           style="fill:#8080ff;fill-opacity:1;stroke:none"
           d="m 414.08127,227.69086 21.37391,0 c 1.02331,0 1.84713,0.82382 1.84713,1.84713 l 0,4.97305 c 0,1.02332 -0.82382,1.84714 -1.84713,1.84714 l -21.37391,0 c -1.02332,0 -1.84714,-0.82382 -1.84714,-1.84714 l 0,-4.97305 c 0,-1.02331 0.82382,-1.84713 1.84714,-1.84713 z"
           id="rect5790" />
        <g
           style="font-size:7.89124631999999959px;font-style:normal;font-weight:normal;line-height:125%;letter-spacing:0px;word-spacing:0px;fill-opacity:1;stroke:none;font-family:Sans;fill:#000000"
           id="text5792">
          <path
             d="m 419.68593,234.89319 -0.76292,0 0,-4.94359 -1.5952,3.3638 -0.45467,0 -1.58365,-3.3638 0,4.94359 -0.71283,0 0,-5.73734 1.04035,0 1.5297,3.19426 1.47961,-3.19426 1.05961,0 0,5.73734"
             style="fill:#000000;fill-opacity:1"
             id="path4348" />
          <path
             d="m 423.2578,234.89319 -2.26565,0 0,-0.58568 0.75136,0 0,-4.56598 -0.75136,0 0,-0.58568 2.26565,0 0,0.58568 -0.75136,0 0,4.56598 0.75136,0 0,0.58568"
             style="fill:#000000;fill-opacity:1"
             id="path4350" />
          <path
             d="m 428.73312,233.2556 c 0,0.22348 -0.0527,0.4444 -0.15798,0.66274 -0.10275,0.21835 -0.24789,0.4033 -0.4354,0.55486 -0.20551,0.1644 -0.44569,0.29283 -0.72054,0.38531 -0.27229,0.0925 -0.60109,0.13871 -0.98641,0.13871 -0.41357,0 -0.78604,-0.0385 -1.11741,-0.11559 -0.3288,-0.0771 -0.66402,-0.19137 -1.00567,-0.34293 l 0,-0.95558 0.0539,0 c 0.29027,0.24146 0.6255,0.4277 1.00568,0.5587 0.38017,0.13101 0.73723,0.19652 1.07117,0.19652 0.47265,0 0.83998,-0.0886 1.102,-0.26587 0.26458,-0.17725 0.39687,-0.41357 0.39688,-0.70898 -1e-5,-0.25431 -0.0629,-0.44183 -0.18881,-0.56256 -0.1233,-0.12073 -0.31211,-0.21449 -0.56641,-0.28128 -0.19266,-0.0514 -0.40202,-0.0938 -0.62806,-0.12715 -0.22349,-0.0334 -0.4611,-0.0758 -0.71284,-0.12716 -0.50861,-0.10788 -0.88622,-0.29155 -1.13282,-0.551 -0.24404,-0.26201 -0.36605,-0.60237 -0.36605,-1.02108 0,-0.48036 0.20293,-0.87338 0.6088,-1.17907 0.40586,-0.30824 0.9209,-0.46237 1.54511,-0.46237 0.40329,0 0.77319,0.0385 1.1097,0.11559 0.33651,0.0771 0.63449,0.17211 0.89393,0.28513 l 0,0.90164 -0.0539,0 c -0.21835,-0.18495 -0.50605,-0.33779 -0.8631,-0.45852 -0.3545,-0.1233 -0.71798,-0.18495 -1.09045,-0.18496 -0.40843,1e-5 -0.73723,0.0848 -0.9864,0.25431 -0.2466,0.16955 -0.3699,0.38789 -0.3699,0.65504 0,0.2389 0.0616,0.42642 0.18495,0.56256 0.1233,0.13615 0.34036,0.24018 0.65118,0.3121 0.1644,0.036 0.39816,0.0796 0.70127,0.13101 0.30311,0.0514 0.55999,0.10404 0.77063,0.15798 0.42641,0.11303 0.74751,0.28385 0.96329,0.51247 0.21577,0.22862 0.32366,0.54843 0.32366,0.95943"
             style="fill:#000000;fill-opacity:1"
             id="path4352" />
          <path
             d="m 434.23542,229.81474 c 0.23375,0.25688 0.41228,0.57155 0.53559,0.94402 0.12586,0.37248 0.18879,0.79504 0.1888,1.26769 -1e-5,0.47265 -0.0642,0.8965 -0.19266,1.27154 -0.12587,0.37247 -0.30312,0.68329 -0.53173,0.93246 -0.23633,0.25944 -0.51633,0.45467 -0.83999,0.58568 -0.3211,0.131 -0.68843,0.19651 -1.102,0.19651 -0.4033,0 -0.77063,-0.0668 -1.102,-0.20037 -0.3288,-0.13357 -0.6088,-0.32751 -0.83998,-0.58182 -0.23119,-0.25431 -0.40972,-0.56641 -0.53559,-0.93632 -0.1233,-0.3699 -0.18495,-0.79246 -0.18495,-1.26768 0,-0.46752 0.0617,-0.88622 0.18495,-1.25613 0.1233,-0.37247 0.30311,-0.69099 0.53944,-0.95558 0.22605,-0.25173 0.50604,-0.44439 0.83999,-0.57797 0.3365,-0.13357 0.70255,-0.20036 1.09814,-0.20037 0.411,1e-5 0.77962,0.0681 1.10586,0.20422 0.32879,0.13358 0.6075,0.32496 0.83613,0.57412 m -0.0694,2.21171 c 0,-0.74494 -0.16697,-1.31906 -0.50091,-1.72236 -0.33394,-0.40586 -0.7899,-0.60879 -1.36786,-0.6088 -0.58312,1e-5 -1.04164,0.20294 -1.37558,0.6088 -0.33137,0.4033 -0.49706,0.97742 -0.49705,1.72236 -1e-5,0.75265 0.16953,1.32933 0.50861,1.73006 0.33908,0.39816 0.79375,0.59724 1.36402,0.59724 0.57026,0 1.02364,-0.19908 1.36016,-0.59724 0.33907,-0.40073 0.50861,-0.97741 0.50861,-1.73006"
             style="fill:#000000;fill-opacity:1"
             id="path4354" />
        </g>
      </g>
      <g
         id="g5796"
         transform="translate(47.418742,0)"
         style="fill:#8080ff">
        <path
           style="fill:#8080ff;fill-opacity:1;stroke:none"
           d="m 414.08127,244.74133 21.37391,0 c 1.02331,0 1.84713,0.82382 1.84713,1.84714 l 0,4.97305 c 0,1.02331 -0.82382,1.84714 -1.84713,1.84714 l -21.37391,0 c -1.02332,0 -1.84714,-0.82383 -1.84714,-1.84714 l 0,-4.97305 c 0,-1.02332 0.82382,-1.84714 1.84714,-1.84714 z"
           id="rect5798" />
        <g
           style="font-size:7.89124631999999959px;font-style:normal;font-weight:normal;line-height:125%;letter-spacing:0px;word-spacing:0px;fill-opacity:1;stroke:none;font-family:Sans;fill:#000000"
           id="text5800">
          <path
             d="m 419.73409,251.94366 -0.76292,0 0,-4.94358 -1.59521,3.36379 -0.45467,0 -1.58364,-3.36379 0,4.94358 -0.71283,0 0,-5.73733 1.04035,0 1.5297,3.19426 1.4796,-3.19426 1.05962,0 0,5.73733"
             style="fill:#000000;fill-opacity:1"
             id="path4339" />
          <path
             d="m 425.56005,246.86522 c 0.23375,0.25688 0.41228,0.57155 0.53559,0.94402 0.12586,0.37247 0.1888,0.79503 0.1888,1.26768 0,0.47266 -0.0642,0.8965 -0.19266,1.27154 -0.12587,0.37247 -0.30312,0.68329 -0.53173,0.93246 -0.23633,0.25945 -0.51633,0.45467 -0.83999,0.58568 -0.3211,0.13101 -0.68843,0.19651 -1.102,0.19651 -0.4033,0 -0.77063,-0.0668 -1.102,-0.20036 -0.3288,-0.13358 -0.6088,-0.32752 -0.83998,-0.58183 -0.23119,-0.2543 -0.40972,-0.56641 -0.53559,-0.93631 -0.1233,-0.3699 -0.18495,-0.79246 -0.18495,-1.26769 0,-0.46751 0.0617,-0.88622 0.18495,-1.25612 0.1233,-0.37247 0.30311,-0.691 0.53944,-0.95558 0.22605,-0.25174 0.50604,-0.44439 0.83999,-0.57798 0.3365,-0.13357 0.70255,-0.20035 1.09814,-0.20036 0.411,1e-5 0.77962,0.0681 1.10586,0.20422 0.32879,0.13358 0.6075,0.32495 0.83613,0.57412 m -0.0694,2.2117 c 0,-0.74494 -0.16697,-1.31905 -0.50091,-1.72235 -0.33394,-0.40586 -0.7899,-0.6088 -1.36786,-0.6088 -0.58312,0 -1.04164,0.20294 -1.37558,0.6088 -0.33137,0.4033 -0.49705,0.97741 -0.49705,1.72235 0,0.75265 0.16953,1.32934 0.50861,1.73007 0.33908,0.39816 0.79375,0.59723 1.36402,0.59723 0.57026,0 1.02364,-0.19907 1.36016,-0.59723 0.33907,-0.40073 0.50861,-0.97742 0.50861,-1.73007"
             style="fill:#000000;fill-opacity:1"
             id="path4341" />
          <path
             d="m 431.66343,250.30608 c 0,0.22348 -0.0527,0.44439 -0.15797,0.66274 -0.10276,0.21834 -0.24789,0.40329 -0.43541,0.55485 -0.20551,0.1644 -0.44568,0.29284 -0.72054,0.38532 -0.27229,0.0925 -0.60109,0.13871 -0.9864,0.13871 -0.41358,0 -0.78605,-0.0385 -1.11742,-0.11559 -0.3288,-0.0771 -0.66402,-0.19138 -1.00567,-0.34294 l 0,-0.95558 0.0539,0 c 0.29027,0.24147 0.62549,0.4277 1.00567,0.55871 0.38017,0.13101 0.73723,0.19651 1.07117,0.19651 0.47265,0 0.83998,-0.0886 1.102,-0.26587 0.26458,-0.17724 0.39687,-0.41357 0.39688,-0.70898 -10e-6,-0.2543 -0.0629,-0.44182 -0.18881,-0.56255 -0.1233,-0.12073 -0.31211,-0.21449 -0.56641,-0.28128 -0.19266,-0.0514 -0.40202,-0.0938 -0.62806,-0.12716 -0.22349,-0.0334 -0.4611,-0.0758 -0.71284,-0.12715 -0.50861,-0.10789 -0.88622,-0.29155 -1.13282,-0.551 -0.24403,-0.26201 -0.36605,-0.60237 -0.36605,-1.02109 0,-0.48035 0.20293,-0.87337 0.6088,-1.17906 0.40586,-0.30825 0.9209,-0.46237 1.54511,-0.46238 0.40329,1e-5 0.77319,0.0385 1.10971,0.1156 0.3365,0.0771 0.63448,0.17211 0.89393,0.28513 l 0,0.90164 -0.0539,0 c -0.21835,-0.18495 -0.50605,-0.33779 -0.8631,-0.45853 -0.3545,-0.12329 -0.71798,-0.18494 -1.09044,-0.18495 -0.40844,1e-5 -0.73724,0.0848 -0.98641,0.25431 -0.2466,0.16954 -0.3699,0.38789 -0.3699,0.65503 0,0.2389 0.0617,0.42642 0.18495,0.56256 0.1233,0.13615 0.34036,0.24019 0.65118,0.31211 0.1644,0.036 0.39816,0.0796 0.70127,0.13101 0.30312,0.0514 0.55999,0.10403 0.77063,0.15797 0.42641,0.11303 0.74751,0.28386 0.96329,0.51247 0.21577,0.22863 0.32366,0.54844 0.32366,0.95944"
             style="fill:#000000;fill-opacity:1"
             id="path4343" />
          <path
             d="m 434.91164,251.94366 -2.26565,0 0,-0.58567 0.75136,0 0,-4.56598 -0.75136,0 0,-0.58568 2.26565,0 0,0.58568 -0.75136,0 0,4.56598 0.75136,0 0,0.58567"
             style="fill:#000000;fill-opacity:1"
             id="path4345" />
        </g>
      </g>
      <g
         style="fill:#8080ff"
         transform="translate(47.573412,-17.954708)"
         id="g5804">
        <path
           style="fill:#8080ff;fill-opacity:1;stroke:none"
           d="m 414.08127,227.69086 21.37391,0 c 1.02331,0 1.84713,0.82382 1.84713,1.84713 l 0,4.97305 c 0,1.02332 -0.82382,1.84714 -1.84713,1.84714 l -21.37391,0 c -1.02332,0 -1.84714,-0.82382 -1.84714,-1.84714 l 0,-4.97305 c 0,-1.02331 0.82382,-1.84713 1.84714,-1.84713 z"
           id="rect5806" />
        <g
           style="font-size:7.89124631999999959px;font-style:normal;font-weight:normal;line-height:125%;letter-spacing:0px;word-spacing:0px;fill-opacity:1;stroke:none;font-family:Sans;fill:#000000"
           id="text5808">
          <path
             d="m 418.74577,233.2556 c -10e-6,0.22348 -0.0527,0.4444 -0.15798,0.66274 -0.10276,0.21835 -0.24789,0.4033 -0.43541,0.55486 -0.2055,0.1644 -0.44568,0.29283 -0.72054,0.38531 -0.27229,0.0925 -0.60109,0.13871 -0.9864,0.13871 -0.41358,0 -0.78605,-0.0385 -1.11742,-0.11559 -0.3288,-0.0771 -0.66402,-0.19137 -1.00567,-0.34293 l 0,-0.95558 0.054,0 c 0.29027,0.24146 0.62549,0.4277 1.00567,0.5587 0.38017,0.13101 0.73723,0.19652 1.07117,0.19652 0.47265,0 0.83999,-0.0886 1.102,-0.26587 0.26458,-0.17725 0.39687,-0.41357 0.39688,-0.70898 -1e-5,-0.25431 -0.0629,-0.44183 -0.18881,-0.56256 -0.1233,-0.12073 -0.31211,-0.21449 -0.56641,-0.28128 -0.19266,-0.0514 -0.40201,-0.0938 -0.62806,-0.12715 -0.22349,-0.0334 -0.4611,-0.0758 -0.71284,-0.12716 -0.50861,-0.10788 -0.88622,-0.29155 -1.13282,-0.551 -0.24403,-0.26201 -0.36605,-0.60237 -0.36605,-1.02108 0,-0.48036 0.20293,-0.87338 0.6088,-1.17907 0.40586,-0.30824 0.9209,-0.46237 1.54511,-0.46237 0.40329,0 0.77319,0.0385 1.10971,0.11559 0.3365,0.0771 0.63448,0.17211 0.89393,0.28513 l 0,0.90164 -0.054,0 c -0.21835,-0.18495 -0.50605,-0.33779 -0.8631,-0.45852 -0.3545,-0.1233 -0.71798,-0.18495 -1.09044,-0.18496 -0.40844,1e-5 -0.73724,0.0848 -0.98641,0.25431 -0.2466,0.16955 -0.3699,0.38789 -0.3699,0.65504 0,0.2389 0.0616,0.42642 0.18495,0.56256 0.1233,0.13615 0.34036,0.24018 0.65118,0.3121 0.1644,0.036 0.39816,0.0796 0.70127,0.13101 0.30312,0.0514 0.55999,0.10404 0.77063,0.15798 0.42642,0.11303 0.74751,0.28385 0.96329,0.51247 0.21577,0.22862 0.32366,0.54843 0.32367,0.95943"
             style="fill:#000000;fill-opacity:1"
             id="path4357" />
          <path
             d="m 424.40219,234.47705 c -0.14129,0.0617 -0.26973,0.11945 -0.38532,0.17339 -0.11303,0.0539 -0.26202,0.11046 -0.44696,0.16954 -0.1567,0.0488 -0.32753,0.0899 -0.51247,0.1233 -0.18239,0.036 -0.38404,0.0539 -0.60495,0.0539 -0.41614,0 -0.79503,-0.0578 -1.13667,-0.17339 -0.33908,-0.11816 -0.63449,-0.30183 -0.88623,-0.551 -0.2466,-0.24403 -0.43926,-0.55357 -0.57797,-0.92861 -0.13871,-0.3776 -0.20807,-0.81558 -0.20807,-1.31392 0,-0.47265 0.0668,-0.89521 0.20036,-1.26769 0.13358,-0.37246 0.32623,-0.68714 0.57797,-0.94402 0.24404,-0.24916 0.53816,-0.43925 0.88238,-0.57026 0.34678,-0.131 0.73081,-0.19651 1.15209,-0.19651 0.30825,0 0.61521,0.0373 0.9209,0.11174 0.30825,0.0745 0.64989,0.2055 1.02494,0.39302 l 0,0.90549 -0.0578,0 c -0.31596,-0.26458 -0.62935,-0.45724 -0.94017,-0.57797 -0.31082,-0.12073 -0.64348,-0.1811 -0.99796,-0.1811 -0.29028,0 -0.55229,0.0475 -0.78605,0.14257 -0.23119,0.0925 -0.43797,0.23761 -0.62035,0.4354 -0.17725,0.19266 -0.31596,0.4367 -0.41614,0.7321 -0.0976,0.29284 -0.14642,0.63192 -0.14642,1.01723 0,0.4033 0.0539,0.75008 0.16183,1.04035 0.11046,0.29027 0.25174,0.5266 0.42385,0.70898 0.17981,0.19009 0.38916,0.33137 0.62806,0.42385 0.24146,0.0899 0.49577,0.13486 0.76292,0.13486 0.36733,0 0.71155,-0.0629 1.03265,-0.18881 0.32109,-0.12587 0.62163,-0.31467 0.90163,-0.56641 l 0.054,0 0,0.89393"
             style="fill:#000000;fill-opacity:1"
             id="path4359" />
          <path
             d="m 430.10099,234.89319 -0.99026,0 -2.2695,-2.55464 -0.57027,0.6088 0,1.94584 -0.76292,0 0,-5.73734 0.76292,0 0,2.9939 2.78583,-2.9939 0.92475,0 -2.56234,2.69721 2.68179,3.04013"
             style="fill:#000000;fill-opacity:1"
             id="path4361" />
        </g>
      </g>
    </g>
  </g>
  <g
     inkscape:groupmode="layer"
     id="layer2"
     inkscape:label="Layer"
     style="display:none"
     transform="translate(-283.23736,-182.60128)">
    <rect
       style="fill:#999999;display:inline"
       id="rect3072"
       width="6.0359454"
       height="9.1851339"
       x="339.00562"
       y="-201.88722"
       transform="scale(1,-1)"
       inkscape:tile-cx="342.02359"
       inkscape:tile-cy="197.29466"
       inkscape:tile-w="6.0359454"
       inkscape:tile-h="9.1851339"
       inkscape:tile-x0="339.00562"
       inkscape:tile-y0="192.70209" />
  </g>
</svg>
